#!OML:ASF C:\Vicon Data\Big\jianyuan-13\jianyuan\Session 1\Capture.male.ASF
:FULLY-SPECIFIED
:DEGREES
112
root -8.122534 17.464702 -18.436837 10.253085 6.835442 0.944935
lowerback -7.961609 0.863705 -1.352609 
upperback -0.165598 1.247913 -0.151108 
thorax 4.268154 0.577963 0.745927 
lowerneck -9.347088 -2.678774 4.333814 
upperneck 6.497237 -3.760256 -4.860616 
head 3.630293 -1.979303 -2.636218 
rclavicle 0.000000 0.000000 
rhumerus -31.682876 -10.180610 -85.781419 
rradius 39.214439 
rwrist 18.673624 
rhand -20.815259 -15.946000 
rfingers 0.000000 
rthumb 5.552739 -45.853249 
lclavicle 0.000000 0.000000 
lhumerus -62.939869 46.688537 42.040191 
lradius 19.913773 
lwrist -81.934747 
lhand -22.431323 -0.669091 
lfingers 0.000000 
lthumb 3.992255 29.273255 
rfemur -8.404849 4.127111 24.234728 
rtibia 18.984193 
rfoot -14.931923 -2.088473 
rtoes -24.668629 
lfemur -27.580733 -7.042717 -19.912281 
ltibia 9.160923 
lfoot -8.635195 7.289989 
ltoes -29.754201 
113
root -8.116841 17.464737 -18.377995 10.253836 6.867030 0.863952
lowerback -8.073051 0.854671 -1.265562 
upperback -0.175094 1.227900 -0.137403 
thorax 4.322797 0.568862 0.710848 
lowerneck -9.402139 -2.645097 4.460207 
upperneck 6.627144 -3.723174 -4.961478 
head 3.686094 -1.962547 -2.698189 
rclavicle 0.000000 0.000000 
rhumerus -31.692889 -10.107767 -85.796609 
rradius 39.227389 
rwrist 18.496991 
rhand -20.802992 -15.899470 
rfingers 0.000000 
rthumb 5.564586 -45.806432 
lclavicle 0.000000 0.000000 
lhumerus -63.487016 46.843220 41.364621 
lradius 19.855563 
lwrist -82.384618 
lhand -22.313548 -0.677971 
lfingers 0.000000 
lthumb 4.105990 29.262154 
rfemur -8.290353 4.120477 24.364892 
rtibia 19.162563 
rfoot -14.947357 -2.202567 
rtoes -24.912616 
lfemur -27.391602 -7.132950 -19.854259 
ltibia 9.052132 
lfoot -8.436165 7.109551 
ltoes -30.148522 
114
root -8.110198 17.461347 -18.319284 10.254296 6.864599 0.763655
lowerback -8.177163 0.867497 -1.171929 
upperback -0.199371 1.234989 -0.110572 
thorax 4.357196 0.573238 0.688462 
lowerneck -9.434438 -2.638017 4.505891 
upperneck 6.766781 -3.714351 -5.014198 
head 3.740994 -1.959643 -2.729746 
rclavicle 0.000000 0.000000 
rhumerus -31.755657 -10.043862 -85.775933 
rradius 39.237180 
rwrist 18.399494 
rhand -20.785365 -15.848595 
rfingers 0.000000 
rthumb 5.581579 -45.755106 
lclavicle 0.000000 0.000000 
lhumerus -63.882551 46.866197 40.954993 
lradius 19.840039 
lwrist -82.632480 
lhand -22.207548 -0.598957 
lfingers 0.000000 
lthumb 4.208354 29.339205 
rfemur -8.184244 4.038110 24.515109 
rtibia 19.333755 
rfoot -14.936211 -2.257818 
rtoes -25.164228 
lfemur -27.230597 -7.191890 -19.793799 
ltibia 9.023581 
lfoot -8.186270 6.958469 
ltoes -31.129256 
115
root -8.102222 17.456676 -18.260407 10.229726 6.828464 0.709633
lowerback -8.242389 0.881424 -1.133231 
upperback -0.223555 1.247970 -0.079043 
thorax 4.368490 0.579639 0.701826 
lowerneck -9.428837 -2.653088 4.473010 
upperneck 6.906654 -3.726071 -5.045332 
head 3.788636 -1.968000 -2.739228 
rclavicle 0.000000 0.000000 
rhumerus -31.813738 -10.031858 -85.713667 
rradius 39.207626 
rwrist 18.490321 
rhand -20.730595 -15.790906 
rfingers 0.000000 
rthumb 5.634445 -45.696004 
lclavicle 0.000000 0.000000 
lhumerus -64.324861 46.909228 40.535799 
lradius 19.834298 
lwrist -82.913370 
lhand -22.201880 -0.490304 
lfingers 0.000000 
lthumb 4.213824 29.447785 
rfemur -8.048047 3.890817 24.607167 
rtibia 19.502356 
rfoot -14.886915 -2.243603 
rtoes -25.417412 
lfemur -27.025479 -7.230100 -19.803066 
ltibia 9.041433 
lfoot -7.930642 6.772859 
ltoes -32.009425 
116
root -8.094683 17.453885 -18.200185 10.194051 6.780642 0.666250
lowerback -8.313197 0.897193 -1.112103 
upperback -0.231612 1.266090 -0.058842 
thorax 4.399482 0.588287 0.714236 
lowerneck -9.426992 -2.666650 4.511772 
upperneck 7.091776 -3.739312 -5.124105 
head 3.776827 -1.980582 -2.727120 
rclavicle 0.000000 0.000000 
rhumerus -31.870174 -10.039994 -85.642239 
rradius 39.203926 
rwrist 18.525577 
rhand -20.690808 -15.760728 
rfingers 0.000000 
rthumb 5.672905 -45.664843 
lclavicle 0.000000 0.000000 
lhumerus -64.902207 47.094026 39.848904 
lradius 19.774890 
lwrist -83.475167 
lhand -22.182245 -0.458508 
lfingers 0.000000 
lthumb 4.232810 29.479187 
rfemur -7.896721 3.842917 24.674307 
rtibia 19.684604 
rfoot -14.859164 -2.254196 
rtoes -25.528464 
lfemur -26.764001 -7.250103 -19.820066 
ltibia 9.041338 
lfoot -7.727312 6.444589 
ltoes -32.061748 
117
root -8.086793 17.451643 -18.140184 10.211192 6.771667 0.538532
lowerback -8.436573 0.904000 -0.999725 
upperback -0.276263 1.260722 -0.005962 
thorax 4.423547 0.586365 0.707022 
lowerneck -9.431675 -2.637285 4.524563 
upperneck 7.543258 -3.677522 -5.282327 
head 3.599182 -1.972077 -2.554406 
rclavicle 0.000000 0.000000 
rhumerus -31.928773 -10.081063 -85.592052 
rradius 39.138310 
rwrist 18.626825 
rhand -20.764638 -15.809582 
rfingers 0.000000 
rthumb 5.601566 -45.715564 
lclavicle 0.000000 0.000000 
lhumerus -65.527493 47.246526 39.148933 
lradius 19.719694 
lwrist -84.076114 
lhand -22.239946 -0.531338 
lfingers 0.000000 
lthumb 4.177101 29.407493 
rfemur -7.851855 3.807734 24.818271 
rtibia 19.911967 
rfoot -14.869994 -2.240816 
rtoes -25.368863 
lfemur -26.551920 -7.291465 -19.725399 
ltibia 8.988374 
lfoot -7.571706 6.085904 
ltoes -32.519056 
118
root -8.080490 17.446370 -18.077532 10.199261 6.772289 0.441148
lowerback -8.559561 0.901568 -0.931755 
upperback -0.292528 1.249237 0.022330 
thorax 4.476631 0.580799 0.698853 
lowerneck -9.401341 -2.648726 4.485046 
upperneck 7.610974 -3.692022 -5.201843 
head 3.616335 -1.975864 -2.524678 
rclavicle 0.000000 0.000000 
rhumerus -32.003641 -10.056897 -85.526411 
rradius 39.107467 
rwrist 18.693609 
rhand -20.753390 -15.736998 
rfingers 0.000000 
rthumb 5.612427 -45.642717 
lclavicle 0.000000 0.000000 
lhumerus -65.765016 47.227721 38.922131 
lradius 19.697462 
lwrist -84.064515 
lhand -22.209629 -0.380266 
lfingers 0.000000 
lthumb 4.206336 29.557933 
rfemur -7.757918 3.775766 24.956585 
rtibia 20.160913 
rfoot -14.884669 -2.287837 
rtoes -25.424399 
lfemur -26.273273 -7.344822 -19.658966 
ltibia 8.891168 
lfoot -7.392470 5.718170 
ltoes -32.428370 
119
root -8.073715 17.441753 -18.015637 10.196413 6.728201 0.336469
lowerback -8.673849 0.913642 -0.870563 
upperback -0.335422 1.255233 0.071374 
thorax 4.496138 0.583410 0.717662 
lowerneck -9.383963 -2.633908 4.474055 
upperneck 7.756421 -3.666809 -5.220804 
head 3.658707 -1.965326 -2.529540 
rclavicle 0.000000 0.000000 
rhumerus -32.086073 -9.986684 -85.511674 
rradius 39.052218 
rwrist 18.545588 
rhand -20.812296 -15.795680 
rfingers 0.000000 
rthumb 5.555609 -45.702850 
lclavicle 0.000000 0.000000 
lhumerus -66.268010 47.281850 38.427893 
lradius 19.753882 
lwrist -84.514159 
lhand -22.101010 -0.481108 
lfingers 0.000000 
lthumb 4.311213 29.454987 
rfemur -7.689092 3.717351 25.082590 
rtibia 20.428211 
rfoot -14.842826 -2.266461 
rtoes -25.573662 
lfemur -25.988945 -7.351020 -19.588805 
ltibia 8.786490 
lfoot -7.306693 5.220019 
ltoes -31.564608 
120
root -8.066164 17.440522 -17.953915 10.151686 6.694799 0.243709
lowerback -8.742116 0.922066 -0.801836 
upperback -0.357972 1.257135 0.102772 
thorax 4.511665 0.584777 0.712834 
lowerneck -9.383494 -2.627446 4.478216 
upperneck 7.913452 -3.658244 -5.199810 
head 3.707053 -1.960390 -2.525998 
rclavicle 0.000000 0.000000 
rhumerus -32.188279 -10.025244 -85.412842 
rradius 38.971549 
rwrist 18.728468 
rhand -20.636199 -15.640172 
rfingers 0.000000 
rthumb 5.725611 -45.542737 
lclavicle 0.000000 0.000000 
lhumerus -66.690648 47.359645 37.985850 
lradius 19.778996 
lwrist -84.861804 
lhand -21.970880 -0.660971 
lfingers 0.000000 
lthumb 4.436857 29.272533 
rfemur -7.575726 3.599507 25.184681 
rtibia 20.688399 
rfoot -14.801779 -2.183987 
rtoes -25.577868 
lfemur -25.653730 -7.368991 -19.532877 
ltibia 8.701907 
lfoot -7.204018 4.788913 
ltoes -31.023408 
121
root -8.058453 17.439138 -17.892108 10.125193 6.646828 0.138197
lowerback -8.827464 0.927731 -0.701594 
upperback -0.393582 1.251522 0.130355 
thorax 4.524034 0.582828 0.685546 
lowerneck -9.373740 -2.616936 4.469025 
upperneck 8.085176 -3.643054 -5.171025 
head 3.759095 -1.952262 -2.517650 
rclavicle 0.000000 0.000000 
rhumerus -32.297791 -9.954491 -85.397810 
rradius 38.924934 
rwrist 18.709698 
rhand -20.624875 -15.699725 
rfingers 0.000000 
rthumb 5.736517 -45.602076 
lclavicle 0.000000 0.000000 
lhumerus -66.778472 47.237120 38.002615 
lradius 19.792963 
lwrist -84.688940 
lhand -21.899973 -0.676033 
lfingers 0.000000 
lthumb 4.505325 29.256025 
rfemur -7.477136 3.467930 25.292471 
rtibia 20.929482 
rfoot -14.727012 -2.061596 
rtoes -25.549335 
lfemur -25.354712 -7.374019 -19.471942 
ltibia 8.653245 
lfoot -7.024343 4.508145 
ltoes -30.655233 
